<?xml version="1.0" encoding="utf-8"?>
<!-- Generator: Adobe Illustrator 19.2.0, SVG Export Plug-In . SVG Version: 6.00 Build 0)  -->
<svg version="1.1" id="Capa_1" xmlns="http://www.w3.org/2000/svg" xmlns:xlink="http://www.w3.org/1999/xlink" x="0px" y="0px"
	 viewBox="0 0 512 512" style="enable-background:new 0 0 512 512;" xml:space="preserve">
<style type="text/css">
	.st0{fill:#282828;stroke:#333d43;stroke-width:6;stroke-miterlimit:10;}
</style>
<g>
	<g>
		<path class="st0" d="M462.7,65H49.3C25.1,65,5.3,84.8,5.3,109.1v293.8C5.3,427.1,25,447,49.3,447h413.3
			c24.2,0,44.1-19.7,44.1-44.1V109.1C506.7,84.9,487,65,462.7,65z M456.6,94.4L256.9,294L55.6,94.4H456.6z M34.6,396.8V115
			l141.5,140.3L34.6,396.8z M55.4,417.6L197,276l49.6,49.2c5.7,5.7,15,5.7,20.7,0l48.4-48.4l140.8,140.8H55.4z M477.4,396.8
			L336.5,256l140.8-140.8V396.8z"/>
	</g>
</g>
</svg>
