<?xml version="1.0" encoding="utf-8"?>
<!-- Generator: Adobe Illustrator 23.0.6, SVG Export Plug-In . SVG Version: 6.00 Build 0)  -->
<svg version="1.1" id="Layer_1" xmlns="http://www.w3.org/2000/svg" xmlns:xlink="http://www.w3.org/1999/xlink" x="0px" y="0px"
	 viewBox="0 0 512 512" style="enable-background:new 0 0 512 512;" xml:space="preserve">
<style type="text/css">
	.st0{fill:#21235E;}
	.st1{fill:#83A0B2;}
	.st2{fill:#FDBF43;}
	.st3{fill:#FDA800;}
	.st4{fill:#FC9302;}
	.st5{fill:#F15B4E;}
	.st6{fill:#D95951;}
	.st7{fill:#B54E49;}
	.st8{fill:#37B3E7;}
	.st9{fill:#0095D4;}
	.st10{fill:#3A7BB2;}
	.st11{fill:#7ECD00;}
	.st12{fill:#6BAE01;}
	.st13{fill:#5A9001;}
</style>
<path class="st0" d="M512,254.7c0.7,139.4-111.2,254.3-250.5,257.2c-19.2,0.4-38-1.3-56.1-5c-8.9-1.8-15.4-9.7-15.4-18.8
	c0-10-8.1-18.1-18.1-18.1H121c-3.6,0-7.2-1.1-10.2-3.2c-26.5-18.3-49.3-41.4-67.3-68.1c-2.3-3.4-3.5-7.4-3.5-11.5v-55
	C40,320,30,310,17.7,310c-7.1,0-13.2-5.2-14.3-12.2C1.2,284.2,0,270.2,0,256C0,114.6,114.6,0,256,0C396.9,0,511.3,113.9,512,254.7z"
	/>
<path class="st1" d="M213.2,52.4c0.7-2.1,1.3-4.1,1.7-5.3c5.9-16.9,14-32.4,23.8-46.5C244.4,0.2,250.2,0,256,0c1.9,0,3.9,0,5.8,0.1
	c-12.5,15.4-22.7,33.1-29.6,52.8c-0.4,1.1-1,3-1.6,5c-1.5,4.7-6.5,7.4-11.2,6C214.4,62.4,211.7,57.3,213.2,52.4z M511.9,250.6
	c-43.7,35.5-103.6,49.6-162.2,32.5c-44.3-13-79.7-41.6-101.9-78.2l8.8-4.8c2.9-1.6,2.7-5.8-0.3-7.2l-28.3-12.7
	c-2.4-1.1-5.2,0.4-5.6,3.1l-4.5,30.7c-0.5,3.3,3,5.7,5.9,4.1l8.1-4.5c24.5,40.6,63.7,72.5,112.8,86.9
	c59.1,17.2,119.7,5.4,166.6-27.1c0.4-5.8,0.6-11.6,0.6-17.4C512,254.2,512,252.4,511.9,250.6z M273.3,468.8
	c-4.7-1.4-9.7,1.2-11.3,5.9c-0.6,2-1.3,3.9-1.7,5c-4.2,11.4-9.4,22.1-15.5,32.1c3.7,0.2,7.4,0.3,11.1,0.3c3.3,0,6.5-0.1,9.8-0.2
	c4.5-8.3,8.4-17.1,11.8-26.3c0.4-1.2,1.1-3.2,1.8-5.3C280.9,475.4,278.2,470.2,273.3,468.8z M271.3,349.3l4.8-30.6
	c0.5-3.3-2.9-5.7-5.8-4.1l-8.2,4.4c-24.1-40.8-63-73.1-112-87.9c-52-15.7-105.5-8.8-149.8,15.2C0.1,249.4,0,252.7,0,256
	c0,3.6,0.1,7.2,0.2,10.8c41.7-25.6,93.8-33.9,144.6-18.5c44.1,13.4,79.3,42.4,101.2,79.1l-8.8,4.7c-2.9,1.6-2.8,5.8,0.2,7.2l28.2,13
	C268,353.4,270.8,351.9,271.3,349.3z M277.5,365.5c-4.6-1.4-9.5,1.2-10.9,5.8s1.2,9.5,5.8,10.9c4.6,1.4,9.5-1.2,10.9-5.8
	C284.7,371.8,282.1,366.9,277.5,365.5z M273.4,399.8c-1.7,4.5,0.6,9.6,5.1,11.3s9.6-0.6,11.3-5.1c1.7-4.5-0.6-9.6-5.1-11.3
	C280.1,393,275.1,395.3,273.4,399.8z M285.4,419.2c-4.5-1.7-9.6,0.6-11.3,5.1c-1.7,4.5,0.6,9.6,5.1,11.3c4.5,1.7,9.6-0.6,11.3-5.1
	S289.9,420.9,285.4,419.2z M282.6,444.7c-4.5-1.7-9.6,0.6-11.3,5.1s0.6,9.6,5.1,11.3s9.6-0.6,11.3-5.1S287.1,446.4,282.6,444.7z
	 M216.1,167.1c4.6,1.4,9.5-1.3,10.8-5.9c1.4-4.6-1.3-9.5-5.9-10.8c-4.6-1.4-9.5,1.3-10.8,5.9S211.4,165.8,216.1,167.1z M219.9,132.8
	c1.6-4.5-0.7-9.6-5.2-11.2c-4.5-1.7-9.6,0.7-11.2,5.2c-1.7,4.5,0.7,9.6,5.2,11.2C213.2,139.6,218.2,137.3,219.9,132.8z M207.7,113.5
	c4.5,1.6,9.6-0.7,11.2-5.2c1.6-4.5-0.7-9.6-5.2-11.2c-4.5-1.6-9.6,0.7-11.2,5.2C200.8,106.9,203.2,111.9,207.7,113.5z M210.3,88
	c4.5,1.7,9.6-0.7,11.2-5.2c1.6-4.5-0.7-9.6-5.2-11.2c-4.5-1.6-9.6,0.7-11.2,5.2C203.4,81.3,205.7,86.4,210.3,88z"/>
<path class="st2" d="M206.8,507.3c-35.5-6.9-68.4-21.2-97.1-41.2c14.7-5.1,26.9-16.9,31.7-33c8-26.6-7-54.6-33.6-62.7
	c-26-7.8-53.3,6.3-62.1,31.7C24.3,371.3,9.5,335.5,3.3,296.8c3.1,0.7,6.1,2,8.7,4.1l7.4,5.8c6.7-4.4,13.7-8.2,21-11.3l-0.9-8.8
	c-1.1-11,6.1-21.1,16.8-23.6c10.5-2.5,21.3,3.1,25.4,13.1l3.5,8.7c7.9-0.5,15.9-0.3,23.9,0.7l3.6-8.1c4.5-10.1,15.8-15.2,26.4-12
	c10.4,3.1,16.9,13.3,15.4,24l-1.3,9.3c7.2,3.6,14,7.8,20.4,12.5l7.2-5.2c9-6.5,21.3-5.3,28.9,2.8c7.4,7.9,8,20,1.3,28.5l-5.8,7.4
	c4.4,6.7,8.2,13.7,11.3,21l8.8-0.9c11-1.1,21.1,6.1,23.6,16.8c2.5,10.5-3.1,21.3-13.1,25.4l-8.7,3.5c0.5,7.9,0.3,15.9-0.7,23.9
	l8.1,3.6c10.1,4.5,15.2,15.8,12,26.4c-3.1,10.4-13.3,16.9-24,15.4l-9.3-1.3c-3.6,7.2-7.8,14-12.5,20.4l5.2,7.2
	C206.2,506.4,206.5,506.8,206.8,507.3z"/>
<path class="st3" d="M141.5,433.1c8-26.6-7-54.6-33.6-62.7c-25.9-7.8-53.3,6.3-62.1,31.7c-8.4-12-15.7-24.8-22-38.2
	c21.8-27.8,59.2-40.8,95.1-30c46.7,14.1,73.2,63.4,59,110.2c-5.5,18.1-16.2,33.1-30,44c-13.4-6.2-26.2-13.6-38.2-22
	C124.4,461,136.6,449.2,141.5,433.1z"/>
<path class="st4" d="M38.9,391.6c-5.6-8.9-10.6-18.1-15.1-27.7c16.4-20.9,41.7-33.5,68.5-33.8c-24.2,9.6-44,29.8-52.1,56.6
	C39.7,388.4,39.3,390,38.9,391.6z"/>
<path class="st5" d="M285.1,1.7c-4.4,7.4-4.2,17,1.2,24.3l5.2,7.1c-4.7,6.4-8.8,13.2-12.3,20.5l-9.3-1.2C259.2,51,249.1,57.6,246,68
	c-3.1,10.6,2.2,21.9,12.3,26.3l8.1,3.5c-0.9,8-1,16-0.5,23.9l-8.6,3.6c-10,4.2-15.4,15-12.9,25.5c2.6,10.7,12.8,17.8,23.8,16.6
	l8.8-1c3.2,7.3,7.1,14.3,11.5,20.9l-5.7,7.5c-6.6,8.6-5.9,20.7,1.6,28.5c7.6,8,20,9.1,28.9,2.5l7.1-5.2c6.4,4.7,13.2,8.8,20.5,12.3
	l-1.2,9.3c-1.4,10.7,5.2,20.9,15.6,23.9c10.6,3.1,21.9-2.2,26.3-12.3l3.5-8.1c8,0.9,16,1,23.9,0.5l3.6,8.6c4.2,10,15,15.4,25.5,12.9
	c10.7-2.6,17.8-12.8,16.6-23.8l-1-8.8c7.3-3.2,14.3-7.1,20.9-11.5l7.5,5.7c8.5,6.5,20.5,5.9,28.3-1.4
	C497.5,109.3,403.6,15.1,285.1,1.7z M448,126.5c-7.8,26.7-35.7,42-62.4,34.2c-26.7-7.8-42-35.7-34.2-62.4
	c7.8-26.7,35.7-42,62.4-34.2C440.5,71.9,455.8,99.8,448,126.5z"/>
<path class="st6" d="M372.8,28.2c-27,8.7-49.4,30.1-57.9,59.4c-13.7,46.9,13.2,95.9,60.1,109.6c46.1,13.5,94.4-12.4,109-57.9
	C459.5,91.6,420.5,52.7,372.8,28.2z M436.1,123c-5.9,20.1-26.9,31.6-47,25.7c-20.1-5.9-31.6-26.9-25.7-47
	c5.9-20.1,26.9-31.6,47-25.7C430.4,81.9,442,102.9,436.1,123z"/>
<path class="st7" d="M410.8,200.1c-11.7,1.5-23.8,0.6-35.8-2.9c-46.9-13.7-73.7-62.8-60.1-109.6c8.6-29.3,30.9-50.8,57.9-59.4
	c3.2,1.6,6.3,3.3,9.4,5.1C361,43.9,344.1,63,336.9,87.6c-13.7,46.9,13.2,95.9,60.1,109.6C401.6,198.5,406.2,199.5,410.8,200.1z"/>
<path class="st8" d="M174.6,118.8c0-4.3-0.4-8.5-1.1-12.7l4.4-2.4c5-2.8,7.3-8.8,5.4-14.2c-2-5.5-7.8-8.7-13.5-7.4l-4.6,1
	c-2.1-3.7-4.6-7.2-7.3-10.4l2.6-4.3c3-4.9,1.9-11.3-2.5-15c-4.5-3.8-11.1-3.6-15.4,0.3L139,57c-3.6-2.1-7.5-3.9-11.6-5.4l0.1-5
	c0.1-5.8-4-10.7-9.6-11.8c-5.8-1-11.4,2.4-13.2,8l-1.4,4.5c-4.3,0-8.5,0.4-12.7,1.1l-2.4-4.4c-2.8-5-8.8-7.3-14.2-5.4
	c-5.5,2-8.7,7.8-7.4,13.5l1,4.6c-3.7,2.1-7.2,4.6-10.4,7.3l-4.3-2.6c-4.9-3-11.3-1.9-15,2.5c-3.8,4.5-3.6,11.1,0.3,15.4l3.2,3.5
	c-2.1,3.6-3.9,7.5-5.4,11.5l-5-0.1c-5.8-0.1-10.7,4-11.8,9.6c-1,5.8,2.4,11.4,8,13.2l4.5,1.4c0,4.3,0.4,8.5,1.1,12.7l-4.4,2.4
	c-5,2.8-7.3,8.8-5.4,14.2c2,5.5,7.8,8.7,13.5,7.4l4.6-1c2.1,3.7,4.6,7.2,7.3,10.4l-2.6,4.3c-3,4.9-1.9,11.3,2.5,15
	c4.5,3.8,11.1,3.6,15.4-0.3l3.5-3.2c3.6,2.1,7.5,3.9,11.5,5.4l-0.1,5c-0.1,5.8,4,10.7,9.6,11.8c5.8,1,11.4-2.4,13.2-8l1.4-4.5
	c4.3,0,8.5-0.4,12.7-1.1l2.4,4.4c2.8,5,8.8,7.3,14.2,5.4c5.5-2,8.7-7.8,7.4-13.5l-1-4.6c3.7-2.1,7.2-4.6,10.4-7.3l4.3,2.6
	c4.9,3,11.3,1.9,15-2.5c3.8-4.5,3.6-11.1-0.3-15.4l-3.2-3.5c2.1-3.6,3.9-7.5,5.4-11.6l5,0.1c5.8,0.1,10.7-4,11.8-9.6
	c1-5.8-2.4-11.4-8-13.2L174.6,118.8z M129.6,123.5c-2.6,14.6-16.5,24.3-31.1,21.7s-24.3-16.5-21.7-31.1
	c2.6-14.6,16.5-24.3,31.1-21.7S132.2,108.9,129.6,123.5z"/>
<path class="st9" d="M111.9,69.7C84.8,64.9,59,83,54.1,110.1s13.2,53,40.3,57.8s53-13.2,57.8-40.3S139,74.6,111.9,69.7z
	 M136.8,124.8c-3.3,18.6-21,30.9-39.6,27.6c-18.6-3.3-30.9-21-27.6-39.6s21-30.9,39.6-27.6C127.8,88.5,140.1,106.2,136.8,124.8z"/>
<path class="st10" d="M111.1,168c-5.4,0.9-11,0.9-16.6-0.1c-27.1-4.8-45.1-30.7-40.3-57.8c4.8-26.8,30.1-44.7,56.9-40.5
	c-20.4,3.3-37.4,19-41.2,40.5c-0.5,2.6-0.7,5.2-0.8,7.8c0,0.6,0,1.3,0,1.9c0.4,23.3,17.3,43.8,41.1,48
	C110.5,167.9,110.8,167.9,111.1,168z"/>
<path class="st11" d="M452.3,420.3c-5-8.5-13.5-14.8-23.9-16.6c-18.9-3.4-36.9,9.2-40.3,28.1c-2.4,13.6,3.5,26.8,14,34.4
	c-16.4,11.4-34.2,21-53.1,28.4c-2.6-3.3-4.9-6.8-7-10.4l-6,1.3c-7.4,1.7-15-2.5-17.6-9.6c-2.5-7,0.4-14.8,6.9-18.5l5.7-3.1
	c-1-5.4-1.5-10.9-1.4-16.5l-5.8-1.8c-7.3-2.3-11.7-9.6-10.4-17.1c1.3-7.4,7.8-12.7,15.2-12.5l6.5,0.1c1.9-5.2,4.2-10.3,6.9-15
	L338,387c-5.2-5.6-5.3-14.2-0.4-20c4.8-5.7,13.1-7.1,19.5-3.2l5.6,3.4c4.2-3.6,8.7-6.7,13.5-9.5l-1.3-6c-1.7-7.4,2.5-15,9.6-17.6
	c7-2.5,14.8,0.4,18.5,6.9l3.1,5.7c5.4-1,10.9-1.5,16.5-1.4l1.8-5.8c2.3-7.3,9.6-11.7,17.1-10.4c7.4,1.3,12.7,7.8,12.5,15.2l-0.1,6.5
	c5.3,1.9,10.3,4.2,15,6.9l4.5-4.1c5.5-5.1,14-5.3,19.8-0.6C482.9,377.6,469.1,400.3,452.3,420.3z"/>
<path class="st12" d="M468.2,399.2c-4.9,7.3-10.2,14.4-15.9,21.1c-5-8.5-13.5-14.8-23.9-16.6c-18.9-3.4-36.9,9.2-40.3,28.1
	c-2.4,13.6,3.5,26.8,14,34.4c-7.1,4.9-14.4,9.5-22,13.7c-12.4-11-20.2-27-20.2-44.9c0-33.1,26.9-60,60-60
	C439.7,375,457.2,384.5,468.2,399.2z"/>
<path class="st13" d="M391.1,473.5c-3.6,2.2-7.2,4.4-10.9,6.4c-12.4-11-20.2-27-20.2-44.9c0-33.1,26.9-60,60-60
	c2.9,0,5.7,0.2,8.5,0.6c-29.1,4.2-51.4,29.2-51.4,59.4C377.1,449.6,382.4,463,391.1,473.5z"/>
</svg>
