<svg xmlns="http://www.w3.org/2000/svg" viewBox="0 0 512 512" style="enable-background:new 0 0 512 512" xml:space="preserve">
  <switch>
    <g>
      <path d="M512.1 311v189.3H402.4V323.7c0-44.4-15.9-74.7-55.6-74.7-30.3 0-48.4 20.4-56.3 40.1-2.9 7.1-3.6 16.9-3.6 26.8v184.4H177s1.5-299.2 0-330.2h109.8V217c-.2.4-.5.7-.7 1.1h.7V217c14.6-22.5 40.6-54.6 98.9-54.6 72.3 0 126.4 47.2 126.4 148.6zM62.1 11C24.6 11 0 35.6 0 68c0 31.7 23.9 57.1 60.7 57.1h.7c38.3 0 62.1-25.4 62.1-57.1-.7-32.4-23.8-57-61.4-57zM6.5 500.4h109.8V170.2H6.5v330.2z" style="fill:#333d43"/>
    </g>
  </switch>
</svg>