<?xml version="1.0" encoding="iso-8859-1"?>
<!-- Generator: Adobe Illustrator 19.0.0, SVG Export Plug-In . SVG Version: 6.00 Build 0)  -->
<svg version="1.1" id="Capa_1" xmlns="http://www.w3.org/2000/svg" xmlns:xlink="http://www.w3.org/1999/xlink" x="0px" y="0px"
	 viewBox="0 0 512 512" style="enable-background:new 0 0 512 512;" xml:space="preserve">
<path style="fill:#49C9FF;" d="M194.093,318.108l-35.977,170.288l-26.309,8.769c-3.987,1.329-6.139,5.641-4.814,9.627
	c1.329,3.988,5.641,6.144,9.628,4.815l30.446-10.149c2.565-0.855,4.483-3.004,5.041-5.648l36.878-174.557L194.093,318.108z"/>
<path style="fill:#2DADE3;" d="M317.907,318.108l35.977,170.288l26.309,8.769c3.987,1.329,6.139,5.641,4.814,9.627
	c-1.329,3.988-5.641,6.144-9.628,4.815l-30.446-10.149c-2.565-0.855-4.483-3.004-5.041-5.648l-36.878-174.557L317.907,318.108z"/>
<path style="fill:#C27749;" d="M210.331,180.139c-46.167,0-83.726-37.559-83.726-83.726c0-4.204-3.408-7.611-7.611-7.611
	s-7.611,3.408-7.611,7.611c0,54.561,44.388,98.949,98.949,98.949H256v-15.223H210.331z"/>
<path style="fill:#A45E43;" d="M393.007,88.801c-4.204,0-7.611,3.408-7.611,7.611c0,46.167-37.559,83.726-83.726,83.726H256v15.223
	h45.669c54.561,0,98.949-44.388,98.949-98.949C400.618,92.209,397.21,88.801,393.007,88.801z"/>
<path style="fill:#2DADE3;" d="M281.372,167.453h-30.446v121.784h50.743V187.75C301.669,176.54,292.582,167.453,281.372,167.453z"/>
<path style="fill:#49C9FF;" d="M250.926,167.453h-20.297c-11.21,0-20.297,9.087-20.297,20.297v101.487h60.892V187.75
	C271.223,176.54,262.136,167.453,250.926,167.453z"/>
<path style="fill:#FF4128;" d="M315.847,287.755c-2.182-10.961-7.074-20.916-14.178-28.964h-30.446l27.33,91.338h30.446
	C328.999,350.129,318.962,303.384,315.847,287.755z"/>
<path style="fill:#FF6337;" d="M298.553,350.129H183.001c0,0,10.037-46.745,13.153-62.374c2.182-10.961,7.074-20.916,14.178-28.964
	h60.892c7.104,8.048,11.996,18.004,14.178,28.964C288.516,303.384,298.553,350.129,298.553,350.129z"/>
<circle style="fill:#60312C;" cx="256" cy="22.834" r="22.834"/>
<path style="fill:#A45E43;" d="M290.764,61.739c0.01-0.01-34.764-0.005-34.764-0.005v75.273c25.219,0,45.669-20.45,45.669-45.669
	C301.669,80.053,297.564,69.706,290.764,61.739z"/>
<path style="fill:#C27749;" d="M270.096,74.095l-48.861-12.356c-6.8,7.967-10.905,18.313-10.905,29.599
	c0,25.219,20.45,45.669,45.669,45.669c8.403,0,15.223-20.45,15.223-45.669C271.223,85.239,270.827,79.413,270.096,74.095z"/>
<path style="fill:#40211D;" d="M256,45.669l14.096,28.426c7.561-2.263,14.69-6.389,20.668-12.356
	C282.392,51.905,269.924,45.669,256,45.669z"/>
<path style="fill:#60312C;" d="M256,45.669c-13.924,0-26.392,6.236-34.764,16.07c13.234,13.234,32.115,17.359,48.861,12.356
	C267.833,57.421,262.373,45.669,256,45.669z"/>
<circle style="fill:#FFCB63;" cx="477.748" cy="256.507" r="7.611"/>
<circle style="fill:#49C9FF;" cx="389.709" cy="213.122" r="7.611"/>
<circle style="fill:#FF6337;" cx="447.302" cy="317.399" r="7.611"/>
<circle style="fill:#49C9FF;" cx="477.748" cy="362.054" r="15.223"/>
<circle style="fill:#FFCB63;" cx="389.709" cy="289.237" r="15.223"/>
<circle style="fill:#9DB55F;" cx="477.748" cy="167.453" r="15.223"/>
<circle style="fill:#49C9FF;" cx="34.252" cy="195.615" r="7.611"/>
<circle style="fill:#FFCB63;" cx="79.921" cy="286.953" r="7.611"/>
<circle style="fill:#9DB55F;" cx="34.252" cy="362.054" r="15.223"/>
<circle style="fill:#FF6337;" cx="122.291" cy="258.791" r="15.223"/>
<circle style="fill:#FFCB63;" cx="34.252" cy="137.007" r="15.223"/>
<circle style="fill:#FF6337;" cx="361.414" cy="15.223" r="15.223"/>
<circle style="fill:#FF4128;" cx="419.586" cy="15.223" r="7.611"/>
<circle style="fill:#FFCB63;" cx="447.302" cy="60.892" r="7.611"/>
<circle style="fill:#49C9FF;" cx="150.586" cy="45.669" r="15.223"/>
<circle style="fill:#FF6337;" cx="92.414" cy="15.223" r="7.611"/>
<circle style="fill:#9DB55F;" cx="64.698" cy="91.338" r="7.611"/>
<g>
</g>
<g>
</g>
<g>
</g>
<g>
</g>
<g>
</g>
<g>
</g>
<g>
</g>
<g>
</g>
<g>
</g>
<g>
</g>
<g>
</g>
<g>
</g>
<g>
</g>
<g>
</g>
<g>
</g>
</svg>
