<?xml version="1.0" encoding="utf-8"?>
<!-- Generator: Adobe Illustrator 19.2.0, SVG Export Plug-In . SVG Version: 6.00 Build 0)  -->
<svg version="1.1" id="Layer_1" xmlns="http://www.w3.org/2000/svg" xmlns:xlink="http://www.w3.org/1999/xlink" x="0px" y="0px"
	 viewBox="0 0 512 512" style="enable-background:new 0 0 512 512;" xml:space="preserve">
<style type="text/css">
	.st0{fill:#FFFFFF;}
</style>
<path class="st0" d="M362.7,42.7c28.3,0,55.1,11.2,75.3,31.3s31.3,47.1,31.3,75.3v213.3c0,28.3-11.2,55.1-31.3,75.3
	s-47.1,31.3-75.3,31.3H149.3c-28.3,0-55.1-11.2-75.3-31.3s-31.3-47.1-31.3-75.3V149.3C42.7,121,53.9,94.2,74,74s47.1-31.3,75.3-31.3
	H362.7 M362.7,0H149.3C67.2,0,0,67.2,0,149.3v213.3C0,444.8,67.2,512,149.3,512h213.3c82.1,0,149.3-67.2,149.3-149.3V149.3
	C512,67.2,444.8,0,362.7,0z"/>
<path class="st0" d="M394.7,149.3c-17.7,0-32-14.3-32-32s14.3-32,32-32c17.6,0,32,14.3,32,32S412.3,149.3,394.7,149.3z M256,170.7
	c47.1,0,85.3,38.3,85.3,85.3S303,341.3,256,341.3S170.7,303,170.7,256S208.9,170.7,256,170.7 M256,128c-70.7,0-128,57.3-128,128
	s57.3,128,128,128s128-57.3,128-128S326.7,128,256,128z"/>
</svg>
