<svg height="512pt" viewBox="0 0 511 512" width="512pt" xmlns="http://www.w3.org/2000/svg"><path d="m501.257812 261.621094c0 138.28125-112.097656 250.378906-250.378906 250.378906-1.933594 0-3.863281-.023438-5.785156-.066406-7.46875-.167969-13.714844-5.773438-14.652344-13.1875-14.265625-112.898438-103.707031-202.367188-216.59375-216.675782-7.464844-.945312-13.117187-7.234374-13.285156-14.757812-.042969-1.894531-.0625-3.789062-.0625-5.691406 0-138.28125 112.097656-250.378906 250.375-250.378906 137.945312 0 250.382812 112.4375 250.382812 250.378906zm0 0" fill="#fde803"/><path d="m451.839844 224.828125c-3.511719 3.511719-7.53125 6.472656-11.929688 8.777344-41.902344 21.941406-83.675781 51.121093-122.925781 86.972656-7.125 6.507813-14.167969 13.234375-21.113281 20.179687-5.949219 5.949219-11.742188 11.976563-17.375 18.066407-36.882813 39.855469-66.855469 82.394531-89.308594 125.085937-2.621094 4.980469-5.96875 9.539063-9.945312 13.519532-1.105469 1.101562-2.25 2.128906-3.417969 3.121093-99.960938-31.371093-172.910157-123.734375-175.253907-233.480469 27.484376-15.855468 54.753907-34.800781 81.132813-56.679687 14.9375-12.394531 29.59375-25.722656 43.835937-39.96875 9.816407-9.8125 19.199219-19.824219 28.140626-29.988281 32.230468-36.644532 58.71875-75.289063 79.007812-114.046875 2.304688-4.398438 5.269531-8.417969 8.78125-11.933594 9.632812-9.632813 22.261719-14.453125 34.890625-14.453125h.003906c12.628907 0 25.257813 4.820312 34.894531 14.453125l140.582032 140.585937c19.273437 19.269532 19.273437 50.515626 0 69.789063zm0 0" fill="#0ab59e"/><path d="m498.046875 271.03125c-3.515625 3.515625-7.535156 6.476562-11.933594 8.78125-35.472656 18.570312-70.855469 42.335938-104.691406 70.941406-3.132813 2.648438-6.246094 5.339844-9.351563 8.070313-10.164062 8.941406-20.175781 18.320312-29.992187 28.136719-39.394531 39.394531-71.792969 81.921874-96.632813 124.96875-109.753906-2.335938-202.121093-75.289063-233.492187-175.253907.988281-1.167969 2.015625-2.3125 3.117187-3.417969 3.980469-3.976562 8.539063-7.324218 13.519532-9.945312 40.089844-21.085938 80.042968-48.796875 117.773437-82.640625 2.445313-2.195313 4.882813-4.425781 7.3125-6.671875 6.089844-5.632812 12.117188-11.417969 18.066407-17.371094 45.203124-45.203125 81.230468-94.53125 107.152343-144.039062 2.304688-4.398438 5.265625-8.417969 8.777344-11.929688 19.273437-19.273437 50.519531-19.273437 69.792969 0l140.582031 140.582032c19.269531 19.269531 19.269531 50.519531 0 69.789062zm0 0" fill="#0ed1b2"/><path d="m176.304688 263.285156c0-11.183594 9.066406-20.253906 20.253906-20.253906 11.183594 0 20.25 9.070312 20.25 20.253906 0 11.1875-9.066406 20.253906-20.25 20.253906-11.1875 0-20.253906-9.066406-20.253906-20.253906zm86.074218-111.390625c19.574219 0 35.441406-15.867187 35.441406-35.441406s-15.867187-35.441406-35.441406-35.441406c-19.574218 0-35.441406 15.867187-35.441406 35.441406s15.867188 35.441406 35.441406 35.441406zm75.945313-50.632812c-11.183594 0-20.25 9.070312-20.25 20.253906 0 11.1875 9.066406 20.253906 20.25 20.253906 11.1875 0 20.253906-9.066406 20.253906-20.253906 0-11.183594-9.066406-20.253906-20.253906-20.253906zm40.507812 182.277343c11.183594 0 20.253907-9.066406 20.253907-20.253906 0-11.183594-9.070313-20.253906-20.253907-20.253906-11.183593 0-20.253906 9.070312-20.253906 20.253906 0 11.1875 9.070313 20.253906 20.253906 20.253906zm-65.820312-91.136718c-19.578125 0-35.445313 15.867187-35.445313 35.441406s15.867188 35.441406 35.445313 35.441406c19.574219 0 35.441406-15.867187 35.441406-35.441406s-15.867187-35.441406-35.441406-35.441406zm81.011719 111.390625c-19.578126 0-35.445313 15.867187-35.445313 35.441406 0 9.058594 3.402344 17.320313 8.996094 23.585937 4.585937-4.109374 9.199219-8.136718 13.847656-12.0625 13.597656-11.496093 27.445313-22.195312 41.445313-32.105468-6.429688-8.992188-16.949219-14.859375-28.84375-14.859375zm-151.898438 20.25c-19.574219 0-35.441406 15.867187-35.441406 35.445312 0 19.574219 15.867187 35.441407 35.441406 35.441407s35.445312-15.867188 35.445312-35.441407c-.003906-19.578125-15.871093-35.445312-35.445312-35.445312zm-91.136719 91.140625c-26.804687 0-49.84375 16.03125-60.105469 39.023437 33.625 27.964844 74.6875 47.28125 119.785157 54.5625 3.9375-8.4375 6.140625-17.84375 6.140625-27.765625 0-36.351562-29.46875-65.820312-65.820313-65.820312zm5.0625-121.519532c0-22.371093-18.132812-40.503906-40.503906-40.503906s-40.503906 18.132813-40.503906 40.503906c0 22.371094 18.132812 40.507813 40.503906 40.507813s40.503906-18.136719 40.503906-40.507813zm0 0" fill="#0ab59e"/></svg>