<?xml version="1.0" encoding="utf-8"?>
<!-- Generator: Adobe Illustrator 23.0.6, SVG Export Plug-In . SVG Version: 6.00 Build 0)  -->
<svg version="1.1" id="Layer_1" xmlns="http://www.w3.org/2000/svg" xmlns:xlink="http://www.w3.org/1999/xlink" x="0px" y="0px"
	 viewBox="0 0 512 512" style="enable-background:new 0 0 512 512;" xml:space="preserve">
<style type="text/css">
	.st0{fill:#21235E;}
	.st1{display:none;fill:#4C953D;}
	.st2{fill:#6BAE01;}
	.st3{fill:#FFD00D;}
	.st4{fill:#FFAF10;}
	.st5{fill:#5A9001;}
</style>
<path class="st0" d="M501.8,261.6c0,138.3-112.1,250.4-250.4,250.4c-1.9,0-3.9,0-5.8-0.1c-7.5-0.2-13.7-5.8-14.7-13.2
	C216.7,385.8,127.2,296.4,14.3,282.1c-7.5-0.9-13.1-7.2-13.3-14.8c0-1.9-0.1-3.8-0.1-5.7C1,123.3,113.1,11.2,251.4,11.2
	C389.3,11.2,501.8,123.7,501.8,261.6z"/>
<path class="st1" d="M452.3,224.8c-3.5,3.5-7.5,6.5-11.9,8.8c-41.9,21.9-83.7,51.1-122.9,87c-7.1,6.5-14.2,13.2-21.1,20.2
	c-5.9,5.9-11.7,12-17.4,18.1c-36.9,39.9-66.9,82.4-89.3,125.1c-2.6,5-6,9.5-9.9,13.5c-1.1,1.1-2.2,2.1-3.4,3.1
	C76.4,469.2-4,372.7,1.3,250.3c27.5-15.9,50.6-30,76.9-51.9c14.9-12.4,29.6-25.7,43.8-40c9.8-9.8,19.2-20.8,28.1-31
	c32.2-36.6,49.9-67.3,73-106c2.3-4.4,5.3-8.4,8.8-11.9c9.6-9.6,32.3-9.5,44.9-9.5h0c12.6,0,25.3,4.8,34.9,14.5L452.3,155
	C471.6,174.3,471.6,205.6,452.3,224.8z"/>
<path class="st2" d="M452.3,224.8c-3.5,3.5-7.5,6.5-11.9,8.8c-41.9,21.9-83.7,51.1-122.9,87c-7.1,6.5-14.2,13.2-21.1,20.2
	c-5.9,5.9-11.7,12-17.4,18.1c-36.9,39.9-66.9,82.4-89.3,125.1c-2.6,5-6,9.5-9.9,13.5c-1.1,1.1-2.2,2.1-3.4,3.1
	C76.4,469.2,3.4,376.8,1.1,267.1c27.5-15.9,54.8-34.8,81.1-56.7c14.9-12.4,29.6-25.7,43.8-40c9.8-9.8,19.2-19.8,28.1-30
	c32.2-36.6,58.7-75.3,79-114c2.3-4.4,5.3-8.4,8.8-11.9C251.6,4.8,264.2,0,276.9,0h0c12.6,0,25.3,4.8,34.9,14.5L452.3,155
	C471.6,174.3,471.6,205.6,452.3,224.8z"/>
<path class="st3" d="M498.5,271c-3.5,3.5-7.5,6.5-11.9,8.8c-35.5,18.6-70.9,42.3-104.7,70.9c-3.1,2.6-6.2,5.3-9.4,8.1
	c-10.2,8.9-20.2,18.3-30,28.1c-39.4,39.4-71.8,81.9-96.6,125c-109.8-2.3-202.1-75.3-233.5-175.3c1-1.2,2-2.3,3.1-3.4
	c4-4,8.5-7.3,13.5-9.9c40.1-21.1,80-48.8,117.8-82.6c2.4-2.2,4.9-4.4,7.3-6.7c6.1-5.6,12.1-11.4,18.1-17.4
	c45.2-45.2,81.2-94.5,107.2-144c2.3-4.4,5.3-8.4,8.8-11.9c19.3-19.3,50.5-19.3,69.8,0l140.6,140.6
	C517.8,220.5,517.8,251.8,498.5,271z"/>
<path class="st4" d="M176.8,263.3c0-11.2,9.1-20.3,20.3-20.3c11.2,0,20.2,9.1,20.2,20.3c0,11.2-9.1,20.3-20.2,20.3
	C185.9,283.5,176.8,274.5,176.8,263.3z M262.9,151.9c19.6,0,35.4-15.9,35.4-35.4S282.5,81,262.9,81s-35.4,15.9-35.4,35.4
	S243.3,151.9,262.9,151.9z M338.8,101.3c-11.2,0-20.2,9.1-20.2,20.3c0,11.2,9.1,20.3,20.2,20.3c11.2,0,20.3-9.1,20.3-20.3
	C359.1,110.3,350,101.3,338.8,101.3z M379.3,283.5c11.2,0,20.3-9.1,20.3-20.3c0-11.2-9.1-20.3-20.3-20.3s-20.3,9.1-20.3,20.3
	C359.1,274.5,368.1,283.5,379.3,283.5z M313.5,192.4c-19.6,0-35.4,15.9-35.4,35.4s15.9,35.4,35.4,35.4c19.6,0,35.4-15.9,35.4-35.4
	S333.1,192.4,313.5,192.4z M394.5,303.8c-19.6,0-35.4,15.9-35.4,35.4c0,9.1,3.4,17.3,9,23.6c4.6-4.1,9.2-8.1,13.8-12.1
	c13.6-11.5,27.4-22.2,41.4-32.1C416.9,309.7,406.4,303.8,394.5,303.8z M242.6,324c-19.6,0-35.4,15.9-35.4,35.4
	c0,19.6,15.9,35.4,35.4,35.4s35.4-15.9,35.4-35.4C278.1,339.9,262.2,324,242.6,324z M151.5,415.2c-26.8,0-49.8,16-60.1,39
	c33.6,28,74.7,47.3,119.8,54.6c3.9-8.4,6.1-17.8,6.1-27.8C217.3,444.7,187.8,415.2,151.5,415.2z M156.6,293.7
	c0-22.4-18.1-40.5-40.5-40.5s-40.5,18.1-40.5,40.5s18.1,40.5,40.5,40.5S156.6,316,156.6,293.7z M156.6,293.7
	c0-22.4-18.1-40.5-40.5-40.5s-40.5,18.1-40.5,40.5s18.1,40.5,40.5,40.5S156.6,316,156.6,293.7z"/>
<path class="st5" d="M129.7,255.5c-4.3-1.5-8.8-2.4-13.6-2.4c-22.4,0-40.5,18.1-40.5,40.5c0,0.7,0,1.4,0.1,2.1
	C93.9,283.7,112,270.3,129.7,255.5z"/>
<path class="st5" d="M274,82.7c-3.5-1.2-7.3-1.8-11.2-1.8c-19.7,0-35.6,15.9-35.6,35.6c0,9.5,3.7,18.1,9.8,24.5
	C250.8,121.8,263.2,102.3,274,82.7z"/>
</svg>
